<mxfile host="Electron" modified="2023-11-17T17:29:51.284Z" agent="Mozilla/5.0 (Windows NT 10.0; Win64; x64) AppleWebKit/537.36 (KHTML, like Gecko) draw.io/21.6.8 Chrome/114.0.5735.289 Electron/25.5.0 Safari/537.36" etag="0jc3ubEU9-47sTKkV6h9" version="21.6.8" type="device">
  <diagram name="Page-1" id="aXkk6tCNMPMtA-BiQgox">
    <mxGraphModel dx="1700" dy="1227" grid="0" gridSize="10" guides="1" tooltips="1" connect="1" arrows="1" fold="1" page="0" pageScale="1" pageWidth="850" pageHeight="1100" math="0" shadow="0">
      <root>
        <mxCell id="0" />
        <mxCell id="1" parent="0" />
        <mxCell id="GnYSYjI6LG6VlQfS6IXu-1" value="" style="whiteSpace=wrap;html=1;aspect=fixed;" parent="1" vertex="1">
          <mxGeometry x="106" y="-13" width="878" height="878" as="geometry" />
        </mxCell>
        <mxCell id="GnYSYjI6LG6VlQfS6IXu-2" value="Admin" style="shape=umlActor;verticalLabelPosition=bottom;verticalAlign=top;html=1;outlineConnect=0;" parent="1" vertex="1">
          <mxGeometry x="1098" y="396" width="30" height="60" as="geometry" />
        </mxCell>
        <mxCell id="GnYSYjI6LG6VlQfS6IXu-3" value="Login" style="ellipse;whiteSpace=wrap;html=1;" parent="1" vertex="1">
          <mxGeometry x="660" y="171" width="74" height="40" as="geometry" />
        </mxCell>
        <mxCell id="GnYSYjI6LG6VlQfS6IXu-4" value="Registration" style="ellipse;whiteSpace=wrap;html=1;" parent="1" vertex="1">
          <mxGeometry x="556" y="299" width="74" height="40" as="geometry" />
        </mxCell>
        <mxCell id="GnYSYjI6LG6VlQfS6IXu-6" value="" style="html=1;labelBackgroundColor=#ffffff;startArrow=none;startFill=0;startSize=6;endArrow=classic;endFill=1;endSize=6;jettySize=auto;orthogonalLoop=1;strokeWidth=1;dashed=1;fontSize=14;rounded=0;entryX=0.5;entryY=1;entryDx=0;entryDy=0;exitX=0.5;exitY=0;exitDx=0;exitDy=0;" parent="1" source="GnYSYjI6LG6VlQfS6IXu-4" target="GnYSYjI6LG6VlQfS6IXu-3" edge="1">
          <mxGeometry width="60" height="60" relative="1" as="geometry">
            <mxPoint x="459" y="249" as="sourcePoint" />
            <mxPoint x="545" y="205" as="targetPoint" />
          </mxGeometry>
        </mxCell>
        <mxCell id="GnYSYjI6LG6VlQfS6IXu-7" value="&amp;lt;&amp;lt;extends&amp;gt;&amp;gt;" style="text;html=1;strokeColor=none;fillColor=none;align=center;verticalAlign=middle;whiteSpace=wrap;rounded=0;rotation=-40;" parent="1" vertex="1">
          <mxGeometry x="604" y="240" width="60" height="30" as="geometry" />
        </mxCell>
        <mxCell id="GnYSYjI6LG6VlQfS6IXu-9" value="Register a &lt;br&gt;new club" style="ellipse;whiteSpace=wrap;html=1;" parent="1" vertex="1">
          <mxGeometry x="734" y="53" width="99" height="50" as="geometry" />
        </mxCell>
        <mxCell id="GnYSYjI6LG6VlQfS6IXu-14" value="Edit player credentials." style="ellipse;whiteSpace=wrap;html=1;" parent="1" vertex="1">
          <mxGeometry x="643" y="371" width="99" height="47" as="geometry" />
        </mxCell>
        <mxCell id="GnYSYjI6LG6VlQfS6IXu-15" value="View credentials of clubs" style="ellipse;whiteSpace=wrap;html=1;" parent="1" vertex="1">
          <mxGeometry x="497" y="47" width="117" height="62" as="geometry" />
        </mxCell>
        <mxCell id="GnYSYjI6LG6VlQfS6IXu-16" value="View players leaderboards" style="ellipse;whiteSpace=wrap;html=1;" parent="1" vertex="1">
          <mxGeometry x="444.5" y="640" width="117" height="62" as="geometry" />
        </mxCell>
        <mxCell id="GnYSYjI6LG6VlQfS6IXu-17" value="Start a tournament" style="ellipse;whiteSpace=wrap;html=1;" parent="1" vertex="1">
          <mxGeometry x="653" y="284" width="117" height="62" as="geometry" />
        </mxCell>
        <mxCell id="GnYSYjI6LG6VlQfS6IXu-18" value="Generate leaderboards report" style="ellipse;whiteSpace=wrap;html=1;" parent="1" vertex="1">
          <mxGeometry x="369.5" y="798" width="117" height="62" as="geometry" />
        </mxCell>
        <mxCell id="GnYSYjI6LG6VlQfS6IXu-19" value="" style="html=1;labelBackgroundColor=#ffffff;startArrow=none;startFill=0;startSize=6;endArrow=classic;endFill=1;endSize=6;jettySize=auto;orthogonalLoop=1;strokeWidth=1;dashed=1;fontSize=14;rounded=0;exitX=0.5;exitY=1;exitDx=0;exitDy=0;entryX=0.5;entryY=0;entryDx=0;entryDy=0;" parent="1" source="GnYSYjI6LG6VlQfS6IXu-16" target="GnYSYjI6LG6VlQfS6IXu-18" edge="1">
          <mxGeometry width="60" height="60" relative="1" as="geometry">
            <mxPoint x="640" y="624" as="sourcePoint" />
            <mxPoint x="700" y="564" as="targetPoint" />
          </mxGeometry>
        </mxCell>
        <mxCell id="GnYSYjI6LG6VlQfS6IXu-20" value="&amp;lt;&amp;lt;extends&amp;gt;&amp;gt;" style="text;html=1;strokeColor=none;fillColor=none;align=center;verticalAlign=middle;whiteSpace=wrap;rounded=0;rotation=-55;" parent="1" vertex="1">
          <mxGeometry x="428" y="731.5" width="60" height="30" as="geometry" />
        </mxCell>
        <mxCell id="GnYSYjI6LG6VlQfS6IXu-21" value="View current scores" style="ellipse;whiteSpace=wrap;html=1;" parent="1" vertex="1">
          <mxGeometry x="430" y="446" width="127" height="79" as="geometry" />
        </mxCell>
        <mxCell id="GnYSYjI6LG6VlQfS6IXu-22" value="Register new players.&amp;nbsp;" style="ellipse;whiteSpace=wrap;html=1;" parent="1" vertex="1">
          <mxGeometry x="439" y="384" width="99" height="50" as="geometry" />
        </mxCell>
        <mxCell id="GnYSYjI6LG6VlQfS6IXu-23" value="Do scoring for matches." style="ellipse;whiteSpace=wrap;html=1;" parent="1" vertex="1">
          <mxGeometry x="207" y="136" width="102" height="62" as="geometry" />
        </mxCell>
        <mxCell id="GnYSYjI6LG6VlQfS6IXu-24" value="" style="endArrow=classic;html=1;rounded=0;exitX=0.5;exitY=0.5;exitDx=0;exitDy=0;exitPerimeter=0;entryX=1;entryY=0.5;entryDx=0;entryDy=0;" parent="1" source="GnYSYjI6LG6VlQfS6IXu-2" target="GnYSYjI6LG6VlQfS6IXu-3" edge="1">
          <mxGeometry width="50" height="50" relative="1" as="geometry">
            <mxPoint x="213" y="390" as="sourcePoint" />
            <mxPoint x="263" y="340" as="targetPoint" />
          </mxGeometry>
        </mxCell>
        <mxCell id="GnYSYjI6LG6VlQfS6IXu-25" value="" style="endArrow=classic;html=1;rounded=0;exitX=0.5;exitY=0.5;exitDx=0;exitDy=0;exitPerimeter=0;entryX=1;entryY=0.5;entryDx=0;entryDy=0;" parent="1" source="GnYSYjI6LG6VlQfS6IXu-2" target="GnYSYjI6LG6VlQfS6IXu-17" edge="1">
          <mxGeometry width="50" height="50" relative="1" as="geometry">
            <mxPoint x="186" y="321" as="sourcePoint" />
            <mxPoint x="236" y="271" as="targetPoint" />
          </mxGeometry>
        </mxCell>
        <mxCell id="GnYSYjI6LG6VlQfS6IXu-26" value="" style="endArrow=classic;html=1;rounded=0;exitX=0.5;exitY=0.5;exitDx=0;exitDy=0;exitPerimeter=0;entryX=1;entryY=0.5;entryDx=0;entryDy=0;" parent="1" source="GnYSYjI6LG6VlQfS6IXu-2" target="GnYSYjI6LG6VlQfS6IXu-16" edge="1">
          <mxGeometry width="50" height="50" relative="1" as="geometry">
            <mxPoint x="127" y="327" as="sourcePoint" />
            <mxPoint x="177" y="277" as="targetPoint" />
          </mxGeometry>
        </mxCell>
        <mxCell id="GnYSYjI6LG6VlQfS6IXu-27" value="" style="endArrow=classic;html=1;rounded=0;exitX=0.5;exitY=0.5;exitDx=0;exitDy=0;exitPerimeter=0;entryX=1;entryY=0.5;entryDx=0;entryDy=0;" parent="1" source="GnYSYjI6LG6VlQfS6IXu-2" target="GnYSYjI6LG6VlQfS6IXu-21" edge="1">
          <mxGeometry width="50" height="50" relative="1" as="geometry">
            <mxPoint x="91" y="596" as="sourcePoint" />
            <mxPoint x="141" y="546" as="targetPoint" />
          </mxGeometry>
        </mxCell>
        <mxCell id="GnYSYjI6LG6VlQfS6IXu-28" value="" style="endArrow=classic;html=1;rounded=0;exitX=0.5;exitY=0.5;exitDx=0;exitDy=0;exitPerimeter=0;entryX=1;entryY=0.5;entryDx=0;entryDy=0;" parent="1" source="GnYSYjI6LG6VlQfS6IXu-2" target="GnYSYjI6LG6VlQfS6IXu-9" edge="1">
          <mxGeometry width="50" height="50" relative="1" as="geometry">
            <mxPoint x="199" y="317" as="sourcePoint" />
            <mxPoint x="249" y="267" as="targetPoint" />
          </mxGeometry>
        </mxCell>
        <mxCell id="GnYSYjI6LG6VlQfS6IXu-29" value="" style="html=1;labelBackgroundColor=#ffffff;startArrow=none;startFill=0;startSize=6;endArrow=classic;endFill=1;endSize=6;jettySize=auto;orthogonalLoop=1;strokeWidth=1;dashed=1;fontSize=14;rounded=0;entryX=1;entryY=0.5;entryDx=0;entryDy=0;exitX=0;exitY=0.5;exitDx=0;exitDy=0;" parent="1" source="GnYSYjI6LG6VlQfS6IXu-9" target="GnYSYjI6LG6VlQfS6IXu-15" edge="1">
          <mxGeometry width="60" height="60" relative="1" as="geometry">
            <mxPoint x="739" y="81" as="sourcePoint" />
            <mxPoint x="482" y="172" as="targetPoint" />
          </mxGeometry>
        </mxCell>
        <mxCell id="GnYSYjI6LG6VlQfS6IXu-30" value="&amp;lt;&amp;lt;includes&amp;gt;&amp;gt;" style="text;html=1;strokeColor=none;fillColor=none;align=center;verticalAlign=middle;whiteSpace=wrap;rounded=0;rotation=0;" parent="1" vertex="1">
          <mxGeometry x="639" y="55" width="60" height="30" as="geometry" />
        </mxCell>
        <mxCell id="GnYSYjI6LG6VlQfS6IXu-32" value="" style="html=1;labelBackgroundColor=#ffffff;startArrow=none;startFill=0;startSize=6;endArrow=classic;endFill=1;endSize=6;jettySize=auto;orthogonalLoop=1;strokeWidth=1;dashed=1;fontSize=14;rounded=0;exitX=1;exitY=0.5;exitDx=0;exitDy=0;entryX=0;entryY=0.5;entryDx=0;entryDy=0;" parent="1" source="GnYSYjI6LG6VlQfS6IXu-22" target="GnYSYjI6LG6VlQfS6IXu-14" edge="1">
          <mxGeometry width="60" height="60" relative="1" as="geometry">
            <mxPoint x="518" y="372" as="sourcePoint" />
            <mxPoint x="578" y="312" as="targetPoint" />
          </mxGeometry>
        </mxCell>
        <mxCell id="GnYSYjI6LG6VlQfS6IXu-35" value="&amp;lt;&amp;lt;includes&amp;gt;&amp;gt;" style="text;html=1;strokeColor=none;fillColor=none;align=center;verticalAlign=middle;whiteSpace=wrap;rounded=0;rotation=-10;" parent="1" vertex="1">
          <mxGeometry x="551" y="379.5" width="60" height="30" as="geometry" />
        </mxCell>
        <mxCell id="GnYSYjI6LG6VlQfS6IXu-36" value="Club" style="shape=umlActor;verticalLabelPosition=bottom;verticalAlign=top;html=1;outlineConnect=0;" parent="1" vertex="1">
          <mxGeometry x="-59" y="437" width="30" height="60" as="geometry" />
        </mxCell>
        <mxCell id="GnYSYjI6LG6VlQfS6IXu-39" value="" style="endArrow=classic;html=1;rounded=0;exitX=0.5;exitY=0.5;exitDx=0;exitDy=0;exitPerimeter=0;entryX=0;entryY=0.5;entryDx=0;entryDy=0;" parent="1" source="GnYSYjI6LG6VlQfS6IXu-36" target="GnYSYjI6LG6VlQfS6IXu-3" edge="1">
          <mxGeometry width="50" height="50" relative="1" as="geometry">
            <mxPoint x="724" y="347" as="sourcePoint" />
            <mxPoint x="774" y="297" as="targetPoint" />
          </mxGeometry>
        </mxCell>
        <mxCell id="GnYSYjI6LG6VlQfS6IXu-40" value="" style="endArrow=classic;html=1;rounded=0;exitX=0.5;exitY=0.5;exitDx=0;exitDy=0;exitPerimeter=0;entryX=0;entryY=0.5;entryDx=0;entryDy=0;" parent="1" source="GnYSYjI6LG6VlQfS6IXu-36" target="GnYSYjI6LG6VlQfS6IXu-22" edge="1">
          <mxGeometry width="50" height="50" relative="1" as="geometry">
            <mxPoint x="429" y="301" as="sourcePoint" />
            <mxPoint x="479" y="251" as="targetPoint" />
          </mxGeometry>
        </mxCell>
        <mxCell id="GnYSYjI6LG6VlQfS6IXu-41" value="" style="endArrow=classic;html=1;rounded=0;exitX=0.5;exitY=0.5;exitDx=0;exitDy=0;exitPerimeter=0;entryX=0;entryY=0.5;entryDx=0;entryDy=0;" parent="1" source="GnYSYjI6LG6VlQfS6IXu-36" target="GnYSYjI6LG6VlQfS6IXu-23" edge="1">
          <mxGeometry width="50" height="50" relative="1" as="geometry">
            <mxPoint x="754" y="409" as="sourcePoint" />
            <mxPoint x="804" y="359" as="targetPoint" />
          </mxGeometry>
        </mxCell>
        <mxCell id="GnYSYjI6LG6VlQfS6IXu-42" value="" style="endArrow=classic;html=1;rounded=0;exitX=0.5;exitY=0.5;exitDx=0;exitDy=0;exitPerimeter=0;entryX=0;entryY=0.5;entryDx=0;entryDy=0;" parent="1" source="GnYSYjI6LG6VlQfS6IXu-36" target="GnYSYjI6LG6VlQfS6IXu-15" edge="1">
          <mxGeometry width="50" height="50" relative="1" as="geometry">
            <mxPoint x="705" y="146" as="sourcePoint" />
            <mxPoint x="755" y="96" as="targetPoint" />
          </mxGeometry>
        </mxCell>
        <mxCell id="GnYSYjI6LG6VlQfS6IXu-43" value="" style="endArrow=classic;html=1;rounded=0;exitX=0.5;exitY=0.5;exitDx=0;exitDy=0;exitPerimeter=0;entryX=0;entryY=0;entryDx=0;entryDy=0;" parent="1" source="GnYSYjI6LG6VlQfS6IXu-36" target="GnYSYjI6LG6VlQfS6IXu-16" edge="1">
          <mxGeometry width="50" height="50" relative="1" as="geometry">
            <mxPoint x="771" y="432" as="sourcePoint" />
            <mxPoint x="821" y="382" as="targetPoint" />
          </mxGeometry>
        </mxCell>
        <mxCell id="ETq7vv0U6keg2jizKwK4-1" value="Make predictions on player performance based on previous performances&amp;nbsp;" style="ellipse;whiteSpace=wrap;html=1;" parent="1" vertex="1">
          <mxGeometry x="689" y="692" width="165" height="103" as="geometry" />
        </mxCell>
        <mxCell id="ETq7vv0U6keg2jizKwK4-2" value="Use predictions to select staring eleven.&amp;nbsp;" style="ellipse;whiteSpace=wrap;html=1;" parent="1" vertex="1">
          <mxGeometry x="508" y="765" width="115" height="85" as="geometry" />
        </mxCell>
        <mxCell id="ETq7vv0U6keg2jizKwK4-3" value="" style="html=1;labelBackgroundColor=#ffffff;startArrow=none;startFill=0;startSize=6;endArrow=classic;endFill=1;endSize=6;jettySize=auto;orthogonalLoop=1;strokeWidth=1;dashed=1;fontSize=14;rounded=0;exitX=0;exitY=0.5;exitDx=0;exitDy=0;entryX=1;entryY=0.5;entryDx=0;entryDy=0;" parent="1" source="ETq7vv0U6keg2jizKwK4-1" target="ETq7vv0U6keg2jizKwK4-2" edge="1">
          <mxGeometry width="60" height="60" relative="1" as="geometry">
            <mxPoint x="440" y="525" as="sourcePoint" />
            <mxPoint x="522" y="588" as="targetPoint" />
          </mxGeometry>
        </mxCell>
        <mxCell id="ETq7vv0U6keg2jizKwK4-4" value="&amp;lt;&amp;lt;includes&amp;gt;&amp;gt;" style="text;html=1;strokeColor=none;fillColor=none;align=center;verticalAlign=middle;whiteSpace=wrap;rounded=0;rotation=-45;" parent="1" vertex="1">
          <mxGeometry x="623" y="748" width="60" height="30" as="geometry" />
        </mxCell>
        <mxCell id="w76kQI21N1npsoAVViP6-1" value="&lt;font style=&quot;font-size: 36px;&quot;&gt;Use Case Diagram&amp;nbsp;&lt;/font&gt;" style="text;html=1;strokeColor=none;fillColor=none;align=center;verticalAlign=middle;whiteSpace=wrap;rounded=0;" parent="1" vertex="1">
          <mxGeometry x="379.75" y="-7" width="371.5" height="30" as="geometry" />
        </mxCell>
        <mxCell id="w7NyQS1OVpfRknpdhxoE-2" value="View previous match scores" style="ellipse;whiteSpace=wrap;html=1;" parent="1" vertex="1">
          <mxGeometry x="434.5" y="541" width="127" height="79" as="geometry" />
        </mxCell>
        <mxCell id="w7NyQS1OVpfRknpdhxoE-5" value="" style="endArrow=classic;html=1;rounded=0;entryX=0;entryY=0;entryDx=0;entryDy=0;exitX=0.5;exitY=0.5;exitDx=0;exitDy=0;exitPerimeter=0;" parent="1" source="GnYSYjI6LG6VlQfS6IXu-36" target="w7NyQS1OVpfRknpdhxoE-2" edge="1">
          <mxGeometry width="50" height="50" relative="1" as="geometry">
            <mxPoint x="-74" y="610" as="sourcePoint" />
            <mxPoint x="444" y="591" as="targetPoint" />
          </mxGeometry>
        </mxCell>
        <mxCell id="w7NyQS1OVpfRknpdhxoE-6" value="" style="endArrow=classic;html=1;rounded=0;entryX=0;entryY=0;entryDx=0;entryDy=0;exitX=0.5;exitY=0.5;exitDx=0;exitDy=0;exitPerimeter=0;" parent="1" source="GnYSYjI6LG6VlQfS6IXu-36" target="GnYSYjI6LG6VlQfS6IXu-21" edge="1">
          <mxGeometry width="50" height="50" relative="1" as="geometry">
            <mxPoint x="-64" y="620" as="sourcePoint" />
            <mxPoint x="454" y="601" as="targetPoint" />
          </mxGeometry>
        </mxCell>
        <mxCell id="w7NyQS1OVpfRknpdhxoE-7" value="" style="endArrow=classic;html=1;rounded=0;exitX=0.5;exitY=0.5;exitDx=0;exitDy=0;exitPerimeter=0;entryX=1;entryY=0.5;entryDx=0;entryDy=0;" parent="1" source="GnYSYjI6LG6VlQfS6IXu-2" target="w7NyQS1OVpfRknpdhxoE-2" edge="1">
          <mxGeometry width="50" height="50" relative="1" as="geometry">
            <mxPoint x="710" y="402" as="sourcePoint" />
            <mxPoint x="760" y="352" as="targetPoint" />
          </mxGeometry>
        </mxCell>
        <mxCell id="w7NyQS1OVpfRknpdhxoE-8" value="End a tournament" style="ellipse;whiteSpace=wrap;html=1;" parent="1" vertex="1">
          <mxGeometry x="793" y="375" width="117" height="62" as="geometry" />
        </mxCell>
        <mxCell id="w7NyQS1OVpfRknpdhxoE-9" value="" style="endArrow=classic;html=1;rounded=0;exitX=0.5;exitY=0.5;exitDx=0;exitDy=0;exitPerimeter=0;entryX=1;entryY=0.5;entryDx=0;entryDy=0;" parent="1" source="GnYSYjI6LG6VlQfS6IXu-2" target="w7NyQS1OVpfRknpdhxoE-8" edge="1">
          <mxGeometry width="50" height="50" relative="1" as="geometry">
            <mxPoint x="978" y="352" as="sourcePoint" />
            <mxPoint x="760" y="352" as="targetPoint" />
          </mxGeometry>
        </mxCell>
        <mxCell id="w7NyQS1OVpfRknpdhxoE-11" value="Edit credentials of clubs" style="ellipse;whiteSpace=wrap;html=1;" parent="1" vertex="1">
          <mxGeometry x="513" y="117" width="117" height="62" as="geometry" />
        </mxCell>
        <mxCell id="w7NyQS1OVpfRknpdhxoE-12" value="" style="html=1;labelBackgroundColor=#ffffff;startArrow=none;startFill=0;startSize=6;endArrow=classic;endFill=1;endSize=6;jettySize=auto;orthogonalLoop=1;strokeWidth=1;dashed=1;fontSize=14;rounded=0;entryX=1;entryY=0.5;entryDx=0;entryDy=0;exitX=0;exitY=0.5;exitDx=0;exitDy=0;" parent="1" source="GnYSYjI6LG6VlQfS6IXu-9" target="w7NyQS1OVpfRknpdhxoE-11" edge="1">
          <mxGeometry width="60" height="60" relative="1" as="geometry">
            <mxPoint x="744" y="88" as="sourcePoint" />
            <mxPoint x="624" y="88" as="targetPoint" />
          </mxGeometry>
        </mxCell>
        <mxCell id="w7NyQS1OVpfRknpdhxoE-13" value="&amp;lt;&amp;lt;includes&amp;gt;&amp;gt;" style="text;html=1;strokeColor=none;fillColor=none;align=center;verticalAlign=middle;whiteSpace=wrap;rounded=0;rotation=-35;" parent="1" vertex="1">
          <mxGeometry x="645" y="95" width="60" height="30" as="geometry" />
        </mxCell>
        <mxCell id="w7NyQS1OVpfRknpdhxoE-14" value="" style="endArrow=classic;html=1;rounded=0;entryX=0;entryY=0.5;entryDx=0;entryDy=0;exitX=0.5;exitY=0.5;exitDx=0;exitDy=0;exitPerimeter=0;" parent="1" source="GnYSYjI6LG6VlQfS6IXu-36" target="w7NyQS1OVpfRknpdhxoE-11" edge="1">
          <mxGeometry width="50" height="50" relative="1" as="geometry">
            <mxPoint x="-15" y="315" as="sourcePoint" />
            <mxPoint x="588" y="290" as="targetPoint" />
          </mxGeometry>
        </mxCell>
        <mxCell id="w7NyQS1OVpfRknpdhxoE-19" value="" style="endArrow=classic;html=1;rounded=0;exitX=0.5;exitY=0.5;exitDx=0;exitDy=0;exitPerimeter=0;entryX=0.5;entryY=0;entryDx=0;entryDy=0;" parent="1" source="GnYSYjI6LG6VlQfS6IXu-2" target="ETq7vv0U6keg2jizKwK4-1" edge="1">
          <mxGeometry width="50" height="50" relative="1" as="geometry">
            <mxPoint x="1123" y="436" as="sourcePoint" />
            <mxPoint x="613" y="679" as="targetPoint" />
          </mxGeometry>
        </mxCell>
      </root>
    </mxGraphModel>
  </diagram>
</mxfile>
